<mxfile host="app.diagrams.net" agent="Mozilla/5.0 (Macintosh; Intel Mac OS X 10_15_7) AppleWebKit/537.36 (KHTML, like Gecko) Chrome/137.0.0.0 Safari/537.36" version="26.0.10">
  <diagram name="ページ1" id="0mlgJw2p7BBIiYGzQajH">
    <mxGraphModel dx="2051" dy="795" grid="1" gridSize="10" guides="1" tooltips="1" connect="1" arrows="1" fold="1" page="1" pageScale="1" pageWidth="827" pageHeight="1169" math="0" shadow="0">
      <root>
        <mxCell id="0" />
        <mxCell id="1" parent="0" />
        <mxCell id="1vrxDVyrfSJEAn533wn--18" value="" style="rounded=0;whiteSpace=wrap;html=1;" vertex="1" parent="1">
          <mxGeometry x="240" y="160" width="500" height="300" as="geometry" />
        </mxCell>
        <mxCell id="1vrxDVyrfSJEAn533wn--31" style="edgeStyle=orthogonalEdgeStyle;rounded=0;orthogonalLoop=1;jettySize=auto;html=1;entryX=0;entryY=0.5;entryDx=0;entryDy=0;entryPerimeter=0;" edge="1" parent="1" source="1vrxDVyrfSJEAn533wn--30" target="1vrxDVyrfSJEAn533wn--1">
          <mxGeometry relative="1" as="geometry">
            <Array as="points">
              <mxPoint x="90" y="330" />
              <mxPoint x="290" y="330" />
              <mxPoint x="290" y="359" />
            </Array>
          </mxGeometry>
        </mxCell>
        <mxCell id="1vrxDVyrfSJEAn533wn--30" value="" style="rounded=0;whiteSpace=wrap;html=1;" vertex="1" parent="1">
          <mxGeometry x="-10" y="160" width="190" height="100" as="geometry" />
        </mxCell>
        <mxCell id="1vrxDVyrfSJEAn533wn--25" value="" style="rounded=0;whiteSpace=wrap;html=1;" vertex="1" parent="1">
          <mxGeometry x="240" y="540" width="500" height="210" as="geometry" />
        </mxCell>
        <mxCell id="1vrxDVyrfSJEAn533wn--23" style="edgeStyle=orthogonalEdgeStyle;rounded=0;orthogonalLoop=1;jettySize=auto;html=1;" edge="1" parent="1" source="1vrxDVyrfSJEAn533wn--1" target="1vrxDVyrfSJEAn533wn--2">
          <mxGeometry relative="1" as="geometry" />
        </mxCell>
        <mxCell id="1vrxDVyrfSJEAn533wn--28" style="edgeStyle=orthogonalEdgeStyle;rounded=0;orthogonalLoop=1;jettySize=auto;html=1;" edge="1" parent="1" source="1vrxDVyrfSJEAn533wn--1" target="1vrxDVyrfSJEAn533wn--26">
          <mxGeometry relative="1" as="geometry">
            <Array as="points">
              <mxPoint x="390" y="529" />
              <mxPoint x="443" y="529" />
            </Array>
          </mxGeometry>
        </mxCell>
        <mxCell id="1vrxDVyrfSJEAn533wn--1" value="" style="sketch=0;points=[[0,0,0],[0.25,0,0],[0.5,0,0],[0.75,0,0],[1,0,0],[0,1,0],[0.25,1,0],[0.5,1,0],[0.75,1,0],[1,1,0],[0,0.25,0],[0,0.5,0],[0,0.75,0],[1,0.25,0],[1,0.5,0],[1,0.75,0]];outlineConnect=0;fontColor=#232F3E;fillColor=#7AA116;strokeColor=#ffffff;dashed=0;verticalLabelPosition=bottom;verticalAlign=top;align=center;html=1;fontSize=12;fontStyle=0;aspect=fixed;shape=mxgraph.aws4.resourceIcon;resIcon=mxgraph.aws4.s3;" vertex="1" parent="1">
          <mxGeometry x="356" y="320" width="78" height="78" as="geometry" />
        </mxCell>
        <mxCell id="1vrxDVyrfSJEAn533wn--20" style="edgeStyle=orthogonalEdgeStyle;rounded=0;orthogonalLoop=1;jettySize=auto;html=1;" edge="1" parent="1" source="1vrxDVyrfSJEAn533wn--2" target="1vrxDVyrfSJEAn533wn--1">
          <mxGeometry relative="1" as="geometry" />
        </mxCell>
        <mxCell id="1vrxDVyrfSJEAn533wn--2" value="" style="sketch=0;points=[[0,0,0],[0.25,0,0],[0.5,0,0],[0.75,0,0],[1,0,0],[0,1,0],[0.25,1,0],[0.5,1,0],[0.75,1,0],[1,1,0],[0,0.25,0],[0,0.5,0],[0,0.75,0],[1,0.25,0],[1,0.5,0],[1,0.75,0]];outlineConnect=0;fontColor=#232F3E;fillColor=#ED7100;strokeColor=#ffffff;dashed=0;verticalLabelPosition=bottom;verticalAlign=top;align=center;html=1;fontSize=12;fontStyle=0;aspect=fixed;shape=mxgraph.aws4.resourceIcon;resIcon=mxgraph.aws4.lambda;" vertex="1" parent="1">
          <mxGeometry x="575.5" y="320" width="78" height="78" as="geometry" />
        </mxCell>
        <mxCell id="1vrxDVyrfSJEAn533wn--3" value="" style="shape=image;verticalLabelPosition=bottom;labelBackgroundColor=default;verticalAlign=top;aspect=fixed;imageAspect=0;image=data:image/png,iVBORw0KGgoAAAANSUhEUgAAAH0AAABHCAYAAAAqYUjuAAAAAXNSR0IArs4c6QAAAIRlWElmTU0AKgAAAAgABQESAAMAAAABAAEAAAEaAAUAAAABAAAASgEbAAUAAAABAAAAUgEoAAMAAAABAAIAAIdpAAQAAAABAAAAWgAAAAAAAABIAAAAAQAAAEgAAAABAAOgAQADAAAAAQABAACgAgAEAAAAAQAAAH2gAwAEAAAAAQAAAEcAAAAALAf7NgAAAAlwSFlzAAALEwAACxMBAJqcGAAAFxVJREFUeAHtXQd8VMX2/mb3pkAIvQWMdAIiAiIqBlSQ8hBUpKog6rMiggo+ffb8FN4TQTqi/6c+sCB/EBQFQYoFVLALiiAqRZAmPaSQ3ey878zd3WQhWTZts0EO7L1zp898M2fOOTP3BjhDf7keUKdzi/UUVIQnJgHZnvJw6nh4dCW214LGcWh1FNpxFHCkomLmXnUn0k/nvsjdttMGdK2hMAWJgLMDAb2ewHZCLOLoC3j4y/bepfXi5+DP6b1L+HH9J/2WMd1suLN/UKOwg76nJZVp0A3Q41EDlvUI0RmOGMJ2nC5dBKykR2L5y2ROCqPhdr+gHsD+IuQYcUnLJOg6heBWdPaEUq8jiiw8K79+JfoeTmMt01qa6muub1QwzEG38oXnkU8M/VzYCYe7F4fVeqWKNKTyKCD8Xr5eCH/JhSxRT4y6EZZ+CW5En9T9HvJwt4au3gRoPhho2BOo1hzKGU1gfU2Vuxd0sgq40qH/XAf96ztQG9+EOrobHEiMbwXWUJJZOIos1V2Ncq0NDCxbT76eiPha67ExSYjN/oLrcyUfZqbSHjeBpqv1bdAXPQRV4SyCI/y5kOTmIDiyHfjsMaifFgDR5AKGE3jzM0xB/waVfb4awUFQBqlMgK4nR70OpQcZcH2d7CLSlc8GerwKJFxIoMv5QorvnkUBf+sHUEtvNhwBzlyz38mh58E4db/7oeIrMDw5RTToegwSEG99w+6l2uXtEDfBrlQf6PkaULdDeHpJSiH7x+JB5CrU7Bxe8EX6B75X97rbGFcZuUQs6HqiswecahGFKIdf/hLAr5wFtBhSSt1LGWDtv4FPHgViuPCLTCBk4RjSrJbq4cxt5jnCLxEJup4UdQ+i9VSqTTZlE+yEZKD/Eq6x8aXfpUe3A3O7AEd/43pvT3eqi1TzVPuyIOSJWBJRpCdaDwYALrP7gpHAoE8jA3DprYr1gNt+ARr1ptGH9RMS+0AFvUY/a3U0zxF8iaiZTnVsGAGfZjpQOk1UsF5vAkkDI7cLV5PVf/mvnHW+Aquaptqq+13fRmqlIwZ0Pd7qSkvYMr+hRWbQDZ8BdS6J1L7Lqdc3E7nOj8ph9aJIZLnrqXvxe06kyHFFBHvXYxFPg8hSP+Cijg36vGwALli2vR+47DkKdl4VI4N+2voxcmAOrElEgI5y1jaqZHZdstzQfd+l4NY+sKaR/iTAtx5mL0lSVw/i9WSLkmfkUamDrp+zFhLwqqZryNJ152ehGl0VeT0VSo06TyV36sBZTpu+kAN/0+Oj7rIfIudaqmu6nhhbH8q91Wx9yk5GnY5QA1ZGTu8UtibTa3FNP8TU1OOdHNKH3NEqxbSysDkWa7pSm+nsDgXL/b2/K467oK6hrft0oIHLabZ12S3xEPbK1nuR1KxSm+l6gvNa7nwtMJsn3DTRV78F1aRvJPVN0eqy5GZg46u2RC9Ty4OJbG9NbuVW5tznkQ91kPsJu3ng41e6v1T3Za0vWoGhpy4V0HUKDZdVLZd/A6VcDeCuXaHXuizElN2/yeVZU/I0IQFenN5H//a+mPHFqCfGHSdWw6Xmw+Gao+7DXvqUCJUOe69kXc7RbpNY3PqRHZ5uxE0Z3WkSN2jYPiGR7QzgXuTlJn5yAERUPNvdkWf5JiHG2qOnWEspBLZlSLFT6cz0CdZhtkQOKfJoEgX3oSU2qE0RpXnRsymcHtxME3IcN2n4s7yzn4c3kJlK0NkVrqP2gHDKlPdCIoNCjDxufEtDTx8e2dpeXO0IO+hGYo+hxG42UzzQ162FSmhXXO0pk/noTEr6618CNrwCdWiLQTrg4IaAn4Xx1AIephbgZR2Fb2opgG6NI5t7wFRZWN8o8jcHtynPUE4PrBkNfJ5iywG+mS+hDqQhw52oHobog4Wm0ljTbcBZZX3uTWcAzwu69o9xMnBCJI/hDM81sT080l3JOqgnR5+bV7JQ/Up0pnObNJnQDuE6lcwBW4cjNYrMSfahKLiQtQ/dDVW+Zqh1/WvG45EtvEGT9OGf2X4vXNF0ZqG7GuleVphOKXbQ9WTnDaxcCut3Ntl4jJFYvQJrQAVFWh1J1u4/pRoQmufDzl278cnnX+GPXXsQFRWFFs0ao1unjnnGLWnPJSs+wdff/4AsGmGaNWmErpcno2b1aiVX7JqneFjzSap1ouORBHgXuvKM3grzXIBLsYHOWf0k9cz7WHblfEUNY5Mm2vyv63WB6n9qVc3FTh3x8Ggs/+gzHE5N5VjiPwerzYHkIbewLCe6d+6IWdPH+pvdIrknDh85guxsjd0/fcpxFdjMBYuX4fZ7H0VMTAxaNm+KD956xZ/W5xj+z6cxb+ESHEtLx2dL5qBVi2Ym6Klx0/HirDk4fjwLTqesjsrUgzdUrVwJ77z2PJo3beTLpnjvG98AFg2mBuAFXkShdHczPITNdo+EVlyR13TuJP1NT7X2EnCRK3MAF+NEJn88P67rXArdkvsOlz4LfcUMaJ5gDQVwacLiZR9j/qJlOHD4CC2bblSvVgVn101AXFw5M8ssdsCSlasw5O4H/S0e3O9qAu2Ag4Pj2/Ub/P4+h+QZGxtrBsOmX7b4vAPui5d/TFCdiGL+PhAfHTMRk16cZY7GuSiENqiXiFbnJqHeWXWojmfj4KEjeG3ewoB8ivWh+SD7QKhP9yejRKy1tiCAS328Q6ZwVSMrn0Y2M8wYF3xZiOBRuT5BvoUnXvpDycsGvjDec7tzeefrrFAhDhdf0Ap3DBmITh0uQlx50XNtWr/hZ/QecjdnvcbCJSuwa89e1KldC9f16Ylx019GudgYvDBzDv4zcbQvibl/u+4nc/d4NI5lpmPzb1vRtFGDgDjp6ZmGi/TqfjmiuZTs3bcfkwl4pYrxOKtOLax8exYqxFHv9lJWVhbeXrwcVatU9nmVzP2cwcCRrcCnT9gzXqMyJ94CnsjtE2qBhZrpOoWHmiZZ3xHCHMBl9FVqCj1gKXDnVqhLnjCAh1qR/OJ1uewSvPv6C+jVrVMA4BL/vBZJePjeO5HJDo+yogi8vUNXN6EmWa5t8luyYpXNfr0FCLcQ2UA4ROMGiVwinXjr3Q8Civ/4sy+MqCFA3jZ4gAn7/KvvKEdYyDx+HMNuHRwAuESIjo7GwGt7mrU9ILOSeGj/ONCgGwc710n+59S9Vo+jlTNEKjDoAjiqOH/hmtrKb0pl4brLVODvG6AadA+x6OKJ1qnjRXBluQyI237/w2QqAPTserlxp6Vn4DjDfbRy1Rq+lJqNhNo1cNN11xoWLn65acYrfL2JcoCs5+eda6/lsTHRHDzasPsvvvk+d/TScffjQHWK1YYkhq5Y/apxh3ApMOiowmNAHpVI0MmpKU1FV4e+5yhUm3tCKK7oUUSAysw8boCT3IT9m2nJ2sg666MHhv3dzPBYCmubNv/m88ZSrv8xHBQXn9+KnKIZMjgofINFImkuFZ9+8bUBvW3rFqhSqaJJ2/WyZLJ5ywySuQuX4sahD2D33n1mLfdnHm5Hl+nSaO+aqRJpq78xlCoUCHSy9PfJTpoYwOWgf3x9YBh1bbErlyBlcaaO5xrd8PwrUDOpPWo2a4+E5slo2/lajJvyEkEUMTaQkqhGySwXYe6VN+b5A7/8bj0FQDcuS77QCGjubI+Z0Wnp6SaOaAQuF5cGNm/k0Fv86SwCPvlfjyEjI9Os8R+u/gItknsh4Zxk/OPJsdj35wEzYPwJwuFocRNQvaldkjCzGM+YUIoNGXSOouGU0HtIZxiq1JBnv38NpYwixdl/4BBqJF2EiTNmkk1nwYpyGlXJzaNV23b8gdnz3zM6+4mFlC8XiyYN6hnvd95f6Qdkx849kLX64gtaI55cIqlJfTZJ4+1Fy03cVWu+Nmv3kWPH0OGiCwKyvaHfVfjkvde5fkeZuoigKO7Z8xehZcdeaNOpNzLIhcJKHf9tz3YplBxYj4sNlEjzqEzIoCNKT6QxwCaLRrVbN+eRXfF7Xdi1nxGaPOQsdwwZgB3rP8HejWuwZ+Pn2PnDaqMXy+zLi/4x4jbjffjoMRzh78eNm5GemYGEWjXMTwKv6tYZFlWzee9SACVNf/kNc69VvSpq8HcitTwnCVu+WYmt336IlIdGmIGTzvJFMPxz/0G0uyJkIfrErAv33ITllbOXICPUOV3PnyqjkEAnW1/BDGXfj5v9POUSpnNs6zZswoFDh80sbd64AZ58cDjKlytnZpesyzLTGjc8m5+SERH2ZOp9ZRczqytQp/9t23YsoL5v0aIlrN1HYkmT5ePHTb8Yr1W0+AmNuHOIued1ESFPuMTtN/bHprVLzc821AA7aC1c9+OmvJKVmJ8+nzYx6QPhwtHq4lMVdErQ9XRjK7/CZCjr+Pm3QdU6/1T5Fkv49t93GWBFau7R5bI889y4eQsHhS3LuEWoyUUyMESQczgcmE+1bPVavgDLyN0ItI+aNKyHtIwMiF4uJtVsSvailg3qe7UvyinvtWpUw7SxT5i0Ut4OqoThJNWkN23x3oFPA5keVyuokHVK0JFlzTWASytodYKcBgkTlS8fa9QkMbv+QNacF6WMnUr2X94Au/fP/QFRZEZe3/cqA/Si5R9j6/YdFO7S0brlOf54NQlYQs3qRgF4etw0mmaj4WC6ypW9LNMfM7jDaABM53K7UKPayctC8NRFDK3RWo5a5ZBz/3U5Dye7Tg26BdpQJSEvF47kpzmCDqKTSyiCT1LjhjiaesyA8MFHn8LHesXkuZa6cufeQ/DNug1+48uX3/1wUmlGdePsFoFQhKw4DpCmjeoHxOtJw49wg/97da5R1Qb0vtKs87kjjR4/Hck9rsPMNxdgy7YdlPBtAefI0VTMpY1+zIQZJo1wnVZe3T53+hJ1c7DpWgReSLDSKuiLA0HNsHpC1IXI1jbKmZzlrYeafMN1SaxbG7cP6Y85C9436/hVN9zFmcjdWbJgAV44wFSqUcu4GfMRrWgC7Lx3l6D/1T38VZSZLPzfYY4icYu63clLU99eXY0gJ3b2bKpsDw63BUB/JuJgx276dQvVs2chglt0tGUMNTKQxEwbS/kiNS0Ny+a9bJaUgLTheKhNOeXAjzboDtUmWJFBQWdnPe5n7dUSaVNvHCyvEgmb+swTRviSTRdRj0SKl7W6acO6mDE+BW3OOwfXUGBr16UvRtxxYwDgvgoN7n8Nln/ymeEId9w80Oftv4uRpiIFMwFOgE/khs6J9NiouwlqOt5f9jH2HzxINp5tlh5ZDkx9yD1mTnsG9RLrnpg0LM+qWhLLkWlOKxV0lWCFSox8iVJ7KqV26mfMpt0/oTo8nW/ccAT8eYCdTbYqmyqlTb9t3Y5DR1LNdmrD+pwQpUyaZ+zUijuJOVfsKKSr4e581+HgM50czBzRpSFEcf+7tCnsAlKQBjfyGn6CRAlrkLLkVIXMdNIpJLXgwTyjYDIRmSWupnGeuURmD2h3JivmZdzc/wpWy3xnun7GfK/NHhSSRUzQZSJYGad3mBhFfnkd+H0xcGybaauObwzVlMadxO7ha3vmYSNsmgLdfttpnuXnCzrKcwuVArI/le8zWn6PknPozTxZk76H2sKDJVdIUXPO2Au8fQmQuk3Obdm5SW9xmqh9XwKbZwMdpwDnDi9qSaGl30/J3QeXVhwB+VP+oOefpsRDVIM+0HOaQa2fAt1hElTDfiVeZkEL0F+n8NNmQ6Eq8TxcbA17b9udBv37Eqjvn7HXVW3r8gXNu1Dxd39hJ5OBp/lOXBDKH/R4pPIjmNo/27PDuHsUVQFq8HZgKc+6Le7P77s25hemHgOa3hSkKeENUh1n5FmgSriU7P5Nfm6M9a/YJM84xe7J9Vztp8WStgNbY/PMD1ZGvoKcuoXnMRzeszFi4kvfFyyf4g+T77P14DrZcSxwiFu4K28G/ktDy1ePQafvLv7yCpmj3vM5sKwv9H/r0EydbufiOmIL0rU7FDLXAibb+3VOAoVsNTJ7YY7Hya58QTdRlfcws0WecTC8O0f+qsq6fj3Xq/h63FQ4CHw3BoodrGU95doPWfvDTYc2AN8+DbxWB2p+Mj8hugCqfhey+FjWZxd3IrkzWJuWvzAJv/onbgfLLBdSCLqeSxRvTHHmQVmaOxjqLNowybLeAZpdn0ekMHhVbQEM3sZPdD7AF/0m0fhACXP/GuBD/twsX9h/0i22tFyxATu7avFWKo1AHuag30quuXkWgU1jJ7MI0Wqoyuour7GXutllriNnYp1U28eLtw5BclPrX6QMQYxkCrv1u0GimiBO4fxJT7DGMKNHzOa8nGMfJa0sZZIdjfe7A398yIpwPyB3C2QA0Atx8TxrfwWB6MrjRG2A8jSryleiZSY6iJYsHf7PeVPylrZ5spiWuq6bL4unboPeS8Fox1Kovas4c1mmTA8mMyTd4ChPyXwocPF4r6f39tpZDGOlBu0I9C+pp/UvAB+wHjQfG9APu+NVCo4FKy53l50UT79IxS3dokjKINmrluPN9dnhkUAeSsYraEffxnVfzIb5tUTqLgOB2Jp2SDyZEb74En5imIDrC6fTTwbsOOhW90G1G+339juO/U65ox5PBfMel+j3LlHHNMo58n67kBMbef49Z9/Y9j3pKs3Pl8xfMHJ6P4PBg4FY/Xi+ccMeIK83d1sA3EGt4or/55Gh2gSXSAkwuUnAk1kq7DjGe5dnAVZ+eYWdCLibW5fV20H34VH/247lDTiz0ptnAjdtCR/ga5/i8WfKOULsDg7uO437FJcTm3dSdG6v3sVPYswws4VHpTDoQ66dnU6KV/oeRJuzX+9eDbWOLHcnuRKra2a1gBsKyYDxcYU4/gGJxoOhWt5nn/oNo3EqlKoiKxWYwoMevhcanfz7Mve6W4WS9pSgSyZ8V+0ADXu2dFSBbOt2juZIJ/lkp4tLm7zqe+gn7jXz77Qc2URT6Q6oLKpUMkCcnPoxPDVTsT43I1tCVWefxTe0D4pY+W5SRUbL/9OUbdlq10W4WFpUonooY2colQsN9AlRt/I07EvGoitCT9tRwOUnCDChlHYmTvH0wIKrKcssotxBFibLkwfPqfvcD4SaeUigS2b88P4mnmBIMhnLmyR9qBmU1c95hto7kRhvxTBg3fNctog2RQ0uXz+SrZ9XkKoGFeQCMspwteeoklXSVg/e7g3sXhMQ5cxDCffAynv4F2O8gIv84eT7wpabVqqCUcigm4/bZOn+RgKWMuSF/Ndpjdq5qmAlnold8B7g9q2efyUBn24LbgI4T47xoGArvjccVCfPq7CQ2bsvsflzGxbG+ndsRX/vMpnn4Uf4opy5F2cP7P4Sem5nKA9VUx8Jx3W7m6uR+NXnVZB7gUGXzGmpe4QjbYwfeHkXvBpNpX1pKIk/uyDln4mbXw+k7eYmE/fif6LpN0akNZKgJX8F0uVuQMAPGr9CXAoFupTDD/pehyj1BoHPWSJEj2/UhX9G61WaPnl40W/qLETN/opJqBnp1B0GbPUzJ1CsWFyEl5MEKUfourhJk8+l0KBLfnylsTKlyD00aFDhzUWU7rW8vtzqLv540KByfQb6ipK7tyG5kvw1nXxf1k22ve977h5Og/qZlkU5fuUzuPg6JZrs/Li+QY3KnufzKsrdh0Sh8+D+h8Jk61GaOZ/2/x213LmJkUSzGE2d0lnk4nLnXLbd/PKVMforgiwbNLkYpr9hMpXcahYSXLeqAcZW6A8qiqPYUDAvOnqsUVQjUsxaT6zPUCF6QDi6kIeTyHI/Wxjp3M4g/2uxge4rwrsz14Yfs7+bL8kP5D6d02j3ouFzUJ8hbw+IJCQ/37J93GxszaTnbBzO2qRSzBsH3sjFeyt20E+snp6Auvzgbx2eGOU2GKqfGP4Xfj5Mtn4Absc+RGftKqt/lvsvjF/Zavr/ANZ0cxNIl50kAAAAAElFTkSuQmCC;" vertex="1" parent="1">
          <mxGeometry x="270" y="120" width="125" height="71" as="geometry" />
        </mxCell>
        <mxCell id="1vrxDVyrfSJEAn533wn--4" value="" style="shape=image;verticalLabelPosition=bottom;labelBackgroundColor=default;verticalAlign=top;aspect=fixed;imageAspect=0;image=data:image/png,iVBORw0KGgoAAAANSUhEUgAAAH0AAABHCAYAAAAqYUjuAAAAAXNSR0IArs4c6QAAAIRlWElmTU0AKgAAAAgABQESAAMAAAABAAEAAAEaAAUAAAABAAAASgEbAAUAAAABAAAAUgEoAAMAAAABAAIAAIdpAAQAAAABAAAAWgAAAAAAAABIAAAAAQAAAEgAAAABAAOgAQADAAAAAQABAACgAgAEAAAAAQAAAH2gAwAEAAAAAQAAAEcAAAAALAf7NgAAAAlwSFlzAAALEwAACxMBAJqcGAAAFxVJREFUeAHtXQd8VMX2/mb3pkAIvQWMdAIiAiIqBlSQ8hBUpKog6rMiggo+ffb8FN4TQTqi/6c+sCB/EBQFQYoFVLALiiAqRZAmPaSQ3ey878zd3WQhWTZts0EO7L1zp898M2fOOTP3BjhDf7keUKdzi/UUVIQnJgHZnvJw6nh4dCW214LGcWh1FNpxFHCkomLmXnUn0k/nvsjdttMGdK2hMAWJgLMDAb2ewHZCLOLoC3j4y/bepfXi5+DP6b1L+HH9J/2WMd1suLN/UKOwg76nJZVp0A3Q41EDlvUI0RmOGMJ2nC5dBKykR2L5y2ROCqPhdr+gHsD+IuQYcUnLJOg6heBWdPaEUq8jiiw8K79+JfoeTmMt01qa6muub1QwzEG38oXnkU8M/VzYCYe7F4fVeqWKNKTyKCD8Xr5eCH/JhSxRT4y6EZZ+CW5En9T9HvJwt4au3gRoPhho2BOo1hzKGU1gfU2Vuxd0sgq40qH/XAf96ztQG9+EOrobHEiMbwXWUJJZOIos1V2Ncq0NDCxbT76eiPha67ExSYjN/oLrcyUfZqbSHjeBpqv1bdAXPQRV4SyCI/y5kOTmIDiyHfjsMaifFgDR5AKGE3jzM0xB/waVfb4awUFQBqlMgK4nR70OpQcZcH2d7CLSlc8GerwKJFxIoMv5QorvnkUBf+sHUEtvNhwBzlyz38mh58E4db/7oeIrMDw5RTToegwSEG99w+6l2uXtEDfBrlQf6PkaULdDeHpJSiH7x+JB5CrU7Bxe8EX6B75X97rbGFcZuUQs6HqiswecahGFKIdf/hLAr5wFtBhSSt1LGWDtv4FPHgViuPCLTCBk4RjSrJbq4cxt5jnCLxEJup4UdQ+i9VSqTTZlE+yEZKD/Eq6x8aXfpUe3A3O7AEd/43pvT3eqi1TzVPuyIOSJWBJRpCdaDwYALrP7gpHAoE8jA3DprYr1gNt+ARr1ptGH9RMS+0AFvUY/a3U0zxF8iaiZTnVsGAGfZjpQOk1UsF5vAkkDI7cLV5PVf/mvnHW+Aquaptqq+13fRmqlIwZ0Pd7qSkvYMr+hRWbQDZ8BdS6J1L7Lqdc3E7nOj8ph9aJIZLnrqXvxe06kyHFFBHvXYxFPg8hSP+Cijg36vGwALli2vR+47DkKdl4VI4N+2voxcmAOrElEgI5y1jaqZHZdstzQfd+l4NY+sKaR/iTAtx5mL0lSVw/i9WSLkmfkUamDrp+zFhLwqqZryNJ152ehGl0VeT0VSo06TyV36sBZTpu+kAN/0+Oj7rIfIudaqmu6nhhbH8q91Wx9yk5GnY5QA1ZGTu8UtibTa3FNP8TU1OOdHNKH3NEqxbSysDkWa7pSm+nsDgXL/b2/K467oK6hrft0oIHLabZ12S3xEPbK1nuR1KxSm+l6gvNa7nwtMJsn3DTRV78F1aRvJPVN0eqy5GZg46u2RC9Ty4OJbG9NbuVW5tznkQ91kPsJu3ng41e6v1T3Za0vWoGhpy4V0HUKDZdVLZd/A6VcDeCuXaHXuizElN2/yeVZU/I0IQFenN5H//a+mPHFqCfGHSdWw6Xmw+Gao+7DXvqUCJUOe69kXc7RbpNY3PqRHZ5uxE0Z3WkSN2jYPiGR7QzgXuTlJn5yAERUPNvdkWf5JiHG2qOnWEspBLZlSLFT6cz0CdZhtkQOKfJoEgX3oSU2qE0RpXnRsymcHtxME3IcN2n4s7yzn4c3kJlK0NkVrqP2gHDKlPdCIoNCjDxufEtDTx8e2dpeXO0IO+hGYo+hxG42UzzQ162FSmhXXO0pk/noTEr6618CNrwCdWiLQTrg4IaAn4Xx1AIephbgZR2Fb2opgG6NI5t7wFRZWN8o8jcHtynPUE4PrBkNfJ5iywG+mS+hDqQhw52oHobog4Wm0ljTbcBZZX3uTWcAzwu69o9xMnBCJI/hDM81sT080l3JOqgnR5+bV7JQ/Up0pnObNJnQDuE6lcwBW4cjNYrMSfahKLiQtQ/dDVW+Zqh1/WvG45EtvEGT9OGf2X4vXNF0ZqG7GuleVphOKXbQ9WTnDaxcCut3Ntl4jJFYvQJrQAVFWh1J1u4/pRoQmufDzl278cnnX+GPXXsQFRWFFs0ao1unjnnGLWnPJSs+wdff/4AsGmGaNWmErpcno2b1aiVX7JqneFjzSap1ouORBHgXuvKM3grzXIBLsYHOWf0k9cz7WHblfEUNY5Mm2vyv63WB6n9qVc3FTh3x8Ggs/+gzHE5N5VjiPwerzYHkIbewLCe6d+6IWdPH+pvdIrknDh85guxsjd0/fcpxFdjMBYuX4fZ7H0VMTAxaNm+KD956xZ/W5xj+z6cxb+ESHEtLx2dL5qBVi2Ym6Klx0/HirDk4fjwLTqesjsrUgzdUrVwJ77z2PJo3beTLpnjvG98AFg2mBuAFXkShdHczPITNdo+EVlyR13TuJP1NT7X2EnCRK3MAF+NEJn88P67rXArdkvsOlz4LfcUMaJ5gDQVwacLiZR9j/qJlOHD4CC2bblSvVgVn101AXFw5M8ssdsCSlasw5O4H/S0e3O9qAu2Ag4Pj2/Ub/P4+h+QZGxtrBsOmX7b4vAPui5d/TFCdiGL+PhAfHTMRk16cZY7GuSiENqiXiFbnJqHeWXWojmfj4KEjeG3ewoB8ivWh+SD7QKhP9yejRKy1tiCAS328Q6ZwVSMrn0Y2M8wYF3xZiOBRuT5BvoUnXvpDycsGvjDec7tzeefrrFAhDhdf0Ap3DBmITh0uQlx50XNtWr/hZ/QecjdnvcbCJSuwa89e1KldC9f16Ylx019GudgYvDBzDv4zcbQvibl/u+4nc/d4NI5lpmPzb1vRtFGDgDjp6ZmGi/TqfjmiuZTs3bcfkwl4pYrxOKtOLax8exYqxFHv9lJWVhbeXrwcVatU9nmVzP2cwcCRrcCnT9gzXqMyJ94CnsjtE2qBhZrpOoWHmiZZ3xHCHMBl9FVqCj1gKXDnVqhLnjCAh1qR/OJ1uewSvPv6C+jVrVMA4BL/vBZJePjeO5HJDo+yogi8vUNXN6EmWa5t8luyYpXNfr0FCLcQ2UA4ROMGiVwinXjr3Q8Civ/4sy+MqCFA3jZ4gAn7/KvvKEdYyDx+HMNuHRwAuESIjo7GwGt7mrU9ILOSeGj/ONCgGwc710n+59S9Vo+jlTNEKjDoAjiqOH/hmtrKb0pl4brLVODvG6AadA+x6OKJ1qnjRXBluQyI237/w2QqAPTserlxp6Vn4DjDfbRy1Rq+lJqNhNo1cNN11xoWLn65acYrfL2JcoCs5+eda6/lsTHRHDzasPsvvvk+d/TScffjQHWK1YYkhq5Y/apxh3ApMOiowmNAHpVI0MmpKU1FV4e+5yhUm3tCKK7oUUSAysw8boCT3IT9m2nJ2sg666MHhv3dzPBYCmubNv/m88ZSrv8xHBQXn9+KnKIZMjgofINFImkuFZ9+8bUBvW3rFqhSqaJJ2/WyZLJ5ywySuQuX4sahD2D33n1mLfdnHm5Hl+nSaO+aqRJpq78xlCoUCHSy9PfJTpoYwOWgf3x9YBh1bbErlyBlcaaO5xrd8PwrUDOpPWo2a4+E5slo2/lajJvyEkEUMTaQkqhGySwXYe6VN+b5A7/8bj0FQDcuS77QCGjubI+Z0Wnp6SaOaAQuF5cGNm/k0Fv86SwCPvlfjyEjI9Os8R+u/gItknsh4Zxk/OPJsdj35wEzYPwJwuFocRNQvaldkjCzGM+YUIoNGXSOouGU0HtIZxiq1JBnv38NpYwixdl/4BBqJF2EiTNmkk1nwYpyGlXJzaNV23b8gdnz3zM6+4mFlC8XiyYN6hnvd95f6Qdkx849kLX64gtaI55cIqlJfTZJ4+1Fy03cVWu+Nmv3kWPH0OGiCwKyvaHfVfjkvde5fkeZuoigKO7Z8xehZcdeaNOpNzLIhcJKHf9tz3YplBxYj4sNlEjzqEzIoCNKT6QxwCaLRrVbN+eRXfF7Xdi1nxGaPOQsdwwZgB3rP8HejWuwZ+Pn2PnDaqMXy+zLi/4x4jbjffjoMRzh78eNm5GemYGEWjXMTwKv6tYZFlWzee9SACVNf/kNc69VvSpq8HcitTwnCVu+WYmt336IlIdGmIGTzvJFMPxz/0G0uyJkIfrErAv33ITllbOXICPUOV3PnyqjkEAnW1/BDGXfj5v9POUSpnNs6zZswoFDh80sbd64AZ58cDjKlytnZpesyzLTGjc8m5+SERH2ZOp9ZRczqytQp/9t23YsoL5v0aIlrN1HYkmT5ePHTb8Yr1W0+AmNuHOIued1ESFPuMTtN/bHprVLzc821AA7aC1c9+OmvJKVmJ8+nzYx6QPhwtHq4lMVdErQ9XRjK7/CZCjr+Pm3QdU6/1T5Fkv49t93GWBFau7R5bI889y4eQsHhS3LuEWoyUUyMESQczgcmE+1bPVavgDLyN0ItI+aNKyHtIwMiF4uJtVsSvailg3qe7UvyinvtWpUw7SxT5i0Ut4OqoThJNWkN23x3oFPA5keVyuokHVK0JFlzTWASytodYKcBgkTlS8fa9QkMbv+QNacF6WMnUr2X94Au/fP/QFRZEZe3/cqA/Si5R9j6/YdFO7S0brlOf54NQlYQs3qRgF4etw0mmaj4WC6ypW9LNMfM7jDaABM53K7UKPayctC8NRFDK3RWo5a5ZBz/3U5Dye7Tg26BdpQJSEvF47kpzmCDqKTSyiCT1LjhjiaesyA8MFHn8LHesXkuZa6cufeQ/DNug1+48uX3/1wUmlGdePsFoFQhKw4DpCmjeoHxOtJw49wg/97da5R1Qb0vtKs87kjjR4/Hck9rsPMNxdgy7YdlPBtAefI0VTMpY1+zIQZJo1wnVZe3T53+hJ1c7DpWgReSLDSKuiLA0HNsHpC1IXI1jbKmZzlrYeafMN1SaxbG7cP6Y85C9436/hVN9zFmcjdWbJgAV44wFSqUcu4GfMRrWgC7Lx3l6D/1T38VZSZLPzfYY4icYu63clLU99eXY0gJ3b2bKpsDw63BUB/JuJgx276dQvVs2chglt0tGUMNTKQxEwbS/kiNS0Ny+a9bJaUgLTheKhNOeXAjzboDtUmWJFBQWdnPe5n7dUSaVNvHCyvEgmb+swTRviSTRdRj0SKl7W6acO6mDE+BW3OOwfXUGBr16UvRtxxYwDgvgoN7n8Nln/ymeEId9w80Oftv4uRpiIFMwFOgE/khs6J9NiouwlqOt5f9jH2HzxINp5tlh5ZDkx9yD1mTnsG9RLrnpg0LM+qWhLLkWlOKxV0lWCFSox8iVJ7KqV26mfMpt0/oTo8nW/ccAT8eYCdTbYqmyqlTb9t3Y5DR1LNdmrD+pwQpUyaZ+zUijuJOVfsKKSr4e581+HgM50czBzRpSFEcf+7tCnsAlKQBjfyGn6CRAlrkLLkVIXMdNIpJLXgwTyjYDIRmSWupnGeuURmD2h3JivmZdzc/wpWy3xnun7GfK/NHhSSRUzQZSJYGad3mBhFfnkd+H0xcGybaauObwzVlMadxO7ha3vmYSNsmgLdfttpnuXnCzrKcwuVArI/le8zWn6PknPozTxZk76H2sKDJVdIUXPO2Au8fQmQuk3Obdm5SW9xmqh9XwKbZwMdpwDnDi9qSaGl30/J3QeXVhwB+VP+oOefpsRDVIM+0HOaQa2fAt1hElTDfiVeZkEL0F+n8NNmQ6Eq8TxcbA17b9udBv37Eqjvn7HXVW3r8gXNu1Dxd39hJ5OBp/lOXBDKH/R4pPIjmNo/27PDuHsUVQFq8HZgKc+6Le7P77s25hemHgOa3hSkKeENUh1n5FmgSriU7P5Nfm6M9a/YJM84xe7J9Vztp8WStgNbY/PMD1ZGvoKcuoXnMRzeszFi4kvfFyyf4g+T77P14DrZcSxwiFu4K28G/ktDy1ePQafvLv7yCpmj3vM5sKwv9H/r0EydbufiOmIL0rU7FDLXAibb+3VOAoVsNTJ7YY7Hya58QTdRlfcws0WecTC8O0f+qsq6fj3Xq/h63FQ4CHw3BoodrGU95doPWfvDTYc2AN8+DbxWB2p+Mj8hugCqfhey+FjWZxd3IrkzWJuWvzAJv/onbgfLLBdSCLqeSxRvTHHmQVmaOxjqLNowybLeAZpdn0ekMHhVbQEM3sZPdD7AF/0m0fhACXP/GuBD/twsX9h/0i22tFyxATu7avFWKo1AHuag30quuXkWgU1jJ7MI0Wqoyuour7GXutllriNnYp1U28eLtw5BclPrX6QMQYxkCrv1u0GimiBO4fxJT7DGMKNHzOa8nGMfJa0sZZIdjfe7A398yIpwPyB3C2QA0Atx8TxrfwWB6MrjRG2A8jSryleiZSY6iJYsHf7PeVPylrZ5spiWuq6bL4unboPeS8Fox1Kovas4c1mmTA8mMyTd4ChPyXwocPF4r6f39tpZDGOlBu0I9C+pp/UvAB+wHjQfG9APu+NVCo4FKy53l50UT79IxS3dokjKINmrluPN9dnhkUAeSsYraEffxnVfzIb5tUTqLgOB2Jp2SDyZEb74En5imIDrC6fTTwbsOOhW90G1G+339juO/U65ox5PBfMel+j3LlHHNMo58n67kBMbef49Z9/Y9j3pKs3Pl8xfMHJ6P4PBg4FY/Xi+ccMeIK83d1sA3EGt4or/55Gh2gSXSAkwuUnAk1kq7DjGe5dnAVZ+eYWdCLibW5fV20H34VH/247lDTiz0ptnAjdtCR/ga5/i8WfKOULsDg7uO437FJcTm3dSdG6v3sVPYswws4VHpTDoQ66dnU6KV/oeRJuzX+9eDbWOLHcnuRKra2a1gBsKyYDxcYU4/gGJxoOhWt5nn/oNo3EqlKoiKxWYwoMevhcanfz7Mve6W4WS9pSgSyZ8V+0ADXu2dFSBbOt2juZIJ/lkp4tLm7zqe+gn7jXz77Qc2URT6Q6oLKpUMkCcnPoxPDVTsT43I1tCVWefxTe0D4pY+W5SRUbL/9OUbdlq10W4WFpUonooY2colQsN9AlRt/I07EvGoitCT9tRwOUnCDChlHYmTvH0wIKrKcssotxBFibLkwfPqfvcD4SaeUigS2b88P4mnmBIMhnLmyR9qBmU1c95hto7kRhvxTBg3fNctog2RQ0uXz+SrZ9XkKoGFeQCMspwteeoklXSVg/e7g3sXhMQ5cxDCffAynv4F2O8gIv84eT7wpabVqqCUcigm4/bZOn+RgKWMuSF/Ndpjdq5qmAlnold8B7g9q2efyUBn24LbgI4T47xoGArvjccVCfPq7CQ2bsvsflzGxbG+ndsRX/vMpnn4Uf4opy5F2cP7P4Sem5nKA9VUx8Jx3W7m6uR+NXnVZB7gUGXzGmpe4QjbYwfeHkXvBpNpX1pKIk/uyDln4mbXw+k7eYmE/fif6LpN0akNZKgJX8F0uVuQMAPGr9CXAoFupTDD/pehyj1BoHPWSJEj2/UhX9G61WaPnl40W/qLETN/opJqBnp1B0GbPUzJ1CsWFyEl5MEKUfourhJk8+l0KBLfnylsTKlyD00aFDhzUWU7rW8vtzqLv540KByfQb6ipK7tyG5kvw1nXxf1k22ve977h5Og/qZlkU5fuUzuPg6JZrs/Li+QY3KnufzKsrdh0Sh8+D+h8Jk61GaOZ/2/x213LmJkUSzGE2d0lnk4nLnXLbd/PKVMforgiwbNLkYpr9hMpXcahYSXLeqAcZW6A8qiqPYUDAvOnqsUVQjUsxaT6zPUCF6QDi6kIeTyHI/Wxjp3M4g/2uxge4rwrsz14Yfs7+bL8kP5D6d02j3ouFzUJ8hbw+IJCQ/37J93GxszaTnbBzO2qRSzBsH3sjFeyt20E+snp6Auvzgbx2eGOU2GKqfGP4Xfj5Mtn4Absc+RGftKqt/lvsvjF/Zavr/ANZ0cxNIl50kAAAAAElFTkSuQmCC;" vertex="1" parent="1">
          <mxGeometry x="10" y="120" width="125" height="71" as="geometry" />
        </mxCell>
        <mxCell id="1vrxDVyrfSJEAn533wn--5" value="" style="sketch=0;points=[[0,0,0],[0.25,0,0],[0.5,0,0],[0.75,0,0],[1,0,0],[0,1,0],[0.25,1,0],[0.5,1,0],[0.75,1,0],[1,1,0],[0,0.25,0],[0,0.5,0],[0,0.75,0],[1,0.25,0],[1,0.5,0],[1,0.75,0]];points=[[0,0,0],[0.25,0,0],[0.5,0,0],[0.75,0,0],[1,0,0],[0,1,0],[0.25,1,0],[0.5,1,0],[0.75,1,0],[1,1,0],[0,0.25,0],[0,0.5,0],[0,0.75,0],[1,0.25,0],[1,0.5,0],[1,0.75,0]];outlineConnect=0;fontColor=#232F3E;fillColor=#E7157B;strokeColor=#ffffff;dashed=0;verticalLabelPosition=bottom;verticalAlign=top;align=center;html=1;fontSize=12;fontStyle=0;aspect=fixed;shape=mxgraph.aws4.resourceIcon;resIcon=mxgraph.aws4.cloudtrail;" vertex="1" parent="1">
          <mxGeometry x="655.5" y="162" width="78" height="78" as="geometry" />
        </mxCell>
        <mxCell id="1vrxDVyrfSJEAn533wn--6" value="CloudTrail" style="text;html=1;align=center;verticalAlign=middle;resizable=0;points=[];autosize=1;strokeColor=none;fillColor=none;" vertex="1" parent="1">
          <mxGeometry x="653.5" y="240" width="80" height="30" as="geometry" />
        </mxCell>
        <mxCell id="1vrxDVyrfSJEAn533wn--7" value="AWS lambda" style="text;html=1;align=center;verticalAlign=middle;resizable=0;points=[];autosize=1;strokeColor=none;fillColor=none;" vertex="1" parent="1">
          <mxGeometry x="569.5" y="398" width="90" height="30" as="geometry" />
        </mxCell>
        <mxCell id="1vrxDVyrfSJEAn533wn--8" value="Amazon S3" style="text;html=1;align=center;verticalAlign=middle;resizable=0;points=[];autosize=1;strokeColor=none;fillColor=none;" vertex="1" parent="1">
          <mxGeometry x="349.5" y="398" width="90" height="30" as="geometry" />
        </mxCell>
        <mxCell id="1vrxDVyrfSJEAn533wn--12" value="" style="sketch=0;points=[[0,0,0],[0.25,0,0],[0.5,0,0],[0.75,0,0],[1,0,0],[0,1,0],[0.25,1,0],[0.5,1,0],[0.75,1,0],[1,1,0],[0,0.25,0],[0,0.5,0],[0,0.75,0],[1,0.25,0],[1,0.5,0],[1,0.75,0]];points=[[0,0,0],[0.25,0,0],[0.5,0,0],[0.75,0,0],[1,0,0],[0,1,0],[0.25,1,0],[0.5,1,0],[0.75,1,0],[1,1,0],[0,0.25,0],[0,0.5,0],[0,0.75,0],[1,0.25,0],[1,0.5,0],[1,0.75,0]];outlineConnect=0;fontColor=#232F3E;fillColor=#E7157B;strokeColor=#ffffff;dashed=0;verticalLabelPosition=bottom;verticalAlign=top;align=center;html=1;fontSize=12;fontStyle=0;aspect=fixed;shape=mxgraph.aws4.resourceIcon;resIcon=mxgraph.aws4.cloudwatch_2;" vertex="1" parent="1">
          <mxGeometry x="507.5" y="162" width="78" height="78" as="geometry" />
        </mxCell>
        <mxCell id="1vrxDVyrfSJEAn533wn--13" value="Amazon CloudWatch" style="text;html=1;align=center;verticalAlign=middle;resizable=0;points=[];autosize=1;strokeColor=none;fillColor=none;" vertex="1" parent="1">
          <mxGeometry x="478.5" y="240" width="140" height="30" as="geometry" />
        </mxCell>
        <mxCell id="1vrxDVyrfSJEAn533wn--14" value="ユニットワン社AWS環境" style="text;html=1;align=center;verticalAlign=middle;resizable=0;points=[];autosize=1;strokeColor=none;fillColor=none;" vertex="1" parent="1">
          <mxGeometry y="200" width="160" height="30" as="geometry" />
        </mxCell>
        <mxCell id="1vrxDVyrfSJEAn533wn--19" value="ファイル連携&lt;div&gt;(個人データ含む)&lt;/div&gt;" style="text;html=1;align=center;verticalAlign=middle;resizable=0;points=[];autosize=1;strokeColor=none;fillColor=none;" vertex="1" parent="1">
          <mxGeometry x="120" y="328" width="120" height="40" as="geometry" />
        </mxCell>
        <mxCell id="1vrxDVyrfSJEAn533wn--21" value="ファイル加工" style="text;html=1;align=center;verticalAlign=middle;resizable=0;points=[];autosize=1;strokeColor=none;fillColor=none;" vertex="1" parent="1">
          <mxGeometry x="458.5" y="325" width="90" height="30" as="geometry" />
        </mxCell>
        <mxCell id="1vrxDVyrfSJEAn533wn--24" value="" style="shape=image;verticalLabelPosition=bottom;labelBackgroundColor=default;verticalAlign=top;aspect=fixed;imageAspect=0;image=https://plazma.treasuredata.co.jp/wp-content/uploads/2020/10/td-stacked-logo.jpg;" vertex="1" parent="1">
          <mxGeometry x="250" y="552.3" width="123" height="137.7" as="geometry" />
        </mxCell>
        <mxCell id="1vrxDVyrfSJEAn533wn--26" value="" style="shape=cylinder3;whiteSpace=wrap;html=1;boundedLbl=1;backgroundOutline=1;size=15;" vertex="1" parent="1">
          <mxGeometry x="395" y="640" width="96" height="80" as="geometry" />
        </mxCell>
        <mxCell id="1vrxDVyrfSJEAn533wn--29" value="データ連携&lt;div&gt;(個人データ含む)&lt;/div&gt;" style="text;html=1;align=center;verticalAlign=middle;resizable=0;points=[];autosize=1;strokeColor=none;fillColor=none;" vertex="1" parent="1">
          <mxGeometry x="434" y="500" width="120" height="40" as="geometry" />
        </mxCell>
        <mxCell id="1vrxDVyrfSJEAn533wn--32" value="監査ログ・アプリケーションログ取得" style="text;html=1;align=center;verticalAlign=middle;resizable=0;points=[];autosize=1;strokeColor=none;fillColor=none;" vertex="1" parent="1">
          <mxGeometry x="503.5" y="260" width="230" height="30" as="geometry" />
        </mxCell>
      </root>
    </mxGraphModel>
  </diagram>
</mxfile>
